<svg xmlns="http://www.w3.org/2000/svg" width="24" height="24" fill="#ff8000" class="bi bi-shawarma" viewBox="0 0 16 16">
    <path d="M3.5 8A.5.5 0 0 0 3 8.5v5a.5.5 0 0 0 .5.5h9a.5.5 0 0 0 .5-.5v-5a.5.5 0 0 0-.5-.5h-9zM4 9h8v4H4V9zm3.768-4.485c.003-.059.007-.117.013-.174a3.001 3.001 0 0 1 5.435 0c.006.057.01.115.013.174L12 6.109V7h-1V6h-1v1H6V6H5v1H4V6.11l1.768-1.595z"/>
    <path fill-rule="evenodd" d="M0 8a8 8 0 1 1 16 0A8 8 0 0 1 0 8zm8-7a7 7 0 0 0-5.468 11.37C3.242 11.226 4.805 10 8 10s4.757 1.225 5.468 2.37A7 7 0 0 0 8 1z"/>
</svg>

